<svg width="368" height="552" viewBox="0 0 368 552" fill="none" xmlns="http://www.w3.org/2000/svg">
<path fill-rule="evenodd" clip-rule="evenodd" d="M0 0H184C285.62 0 368 82.3796 368 184C368 285.62 285.62 368 184 368C149.452 368 117.128 358.479 89.5092 341.917C96.0389 318.209 111.252 298.1 131.514 285.225C147.223 293.388 165.073 298 184 298C246.96 298 298 246.96 298 184C298 121.04 246.96 70 184 70C121.04 70 70 121.04 70 184C70 190.337 70.5171 196.554 71.5114 202.609C49.4755 217.626 30.5962 236.931 16.0743 259.324C5.74579 236.333 0 210.838 0 184V0Z" fill="#5FA1EF"/>
<path fill-rule="evenodd" clip-rule="evenodd" d="M296.489 349.391C297.483 355.446 298 361.663 298 368C298 430.96 246.96 482 184 482C121.04 482 70 430.96 70 368C70 305.04 121.04 254 184 254C202.927 254 220.777 258.612 236.486 266.775C256.748 253.9 271.961 233.791 278.491 210.083C250.872 193.521 218.548 184 184 184C82.3796 184 0 266.38 0 368V552H184C285.62 552 368 469.62 368 368C368 341.162 362.254 315.667 351.926 292.676C337.404 315.069 318.524 334.374 296.489 349.391Z" fill="#B364C0"/>
</svg>
