<svg width="475" height="713" viewBox="0 0 475 713" fill="none" xmlns="http://www.w3.org/2000/svg">
<path id="#line" stroke-dasharray="100 40" stroke-dashoffset="10" d="M237.5 474.833C193.136 474.833 151.621 462.636 116.118 441.409C124.542 411.162 143.954 385.497 169.779 368.993C190.063 379.489 213.091 385.417 237.5 385.417C319.043 385.417 385.147 319.266 385.147 237.667C385.147 156.067 319.043 89.9167 237.5 89.9167C155.957 89.9167 89.8533 156.067 89.8533 237.667C89.8533 245.77 90.5051 253.721 91.7594 261.47C63.6271 280.705 39.4846 305.354 20.83 333.918C7.76219 304.503 0.5 271.934 0.5 237.667L0.5 0.5L237.5 0.5C368.391 0.5 474.5 106.683 474.5 237.667C474.5 368.651 368.391 474.833 237.5 474.833ZM385.147 475.333C385.147 467.23 384.495 459.279 383.241 451.53C411.373 432.295 435.515 407.646 454.17 379.082C467.238 408.497 474.5 441.066 474.5 475.333C474.5 606.317 368.391 712.5 237.5 712.5H0.50001L0.5 475.333C0.499994 344.349 106.609 238.167 237.5 238.167C281.864 238.167 323.379 250.364 358.882 271.591C350.458 301.838 331.046 327.503 305.221 344.007C284.937 333.511 261.909 327.583 237.5 327.583C155.957 327.583 89.8533 393.734 89.8533 475.333C89.8533 556.933 155.957 623.083 237.5 623.083C319.043 623.083 385.147 556.933 385.147 475.333Z" stroke="#1e293b">
    <animate
      attributeName="stroke-dashoffset"
      values="1000;0;1000"
      dur="20s"
      repeatCount="indefinite" />
</path>
</svg>
