<svg width="400" height="400" viewBox="0 0 400 400" fill="none" xmlns="http://www.w3.org/2000/svg">
<mask id="path-1-inside-1_35_10" fill="white">
<path d="M330.108 330.108C336.356 336.356 336.395 346.542 329.667 352.271C303.757 374.335 272.569 389.483 239.018 396.157C200.222 403.874 160.008 399.913 123.463 384.776C86.918 369.638 55.6823 344.004 33.706 311.114C11.7298 278.224 -1.64257e-05 239.556 0 200C1.64257e-05 160.444 11.7298 121.776 33.7061 88.8859C55.6824 55.996 86.9182 30.3616 123.463 15.224C160.009 0.0865398 200.222 -3.8741 239.018 3.84297C272.569 10.5167 303.757 25.6646 329.667 47.7289C336.395 53.458 336.356 63.6441 330.108 69.8925L287.602 112.398C281.353 118.647 271.281 118.534 264.178 113.277C251.438 103.849 236.721 97.3032 221.048 94.1856C200.12 90.0227 178.427 92.1592 158.713 100.325C138.999 108.491 122.15 122.319 110.295 140.061C98.44 157.803 92.1126 178.662 92.1125 200C92.1125 221.338 98.44 242.197 110.295 259.939C122.15 277.681 138.999 291.509 158.713 299.675C178.427 307.841 200.12 309.977 221.048 305.814C236.721 302.697 251.438 296.151 264.178 286.723C271.281 281.467 281.353 281.353 287.602 287.602L330.108 330.108Z"/>
</mask>
<path d="M330.108 330.108C336.356 336.356 336.395 346.542 329.667 352.271C303.757 374.335 272.569 389.483 239.018 396.157C200.222 403.874 160.008 399.913 123.463 384.776C86.918 369.638 55.6823 344.004 33.706 311.114C11.7298 278.224 -1.64257e-05 239.556 0 200C1.64257e-05 160.444 11.7298 121.776 33.7061 88.8859C55.6824 55.996 86.9182 30.3616 123.463 15.224C160.009 0.0865398 200.222 -3.8741 239.018 3.84297C272.569 10.5167 303.757 25.6646 329.667 47.7289C336.395 53.458 336.356 63.6441 330.108 69.8925L287.602 112.398C281.353 118.647 271.281 118.534 264.178 113.277C251.438 103.849 236.721 97.3032 221.048 94.1856C200.12 90.0227 178.427 92.1592 158.713 100.325C138.999 108.491 122.15 122.319 110.295 140.061C98.44 157.803 92.1126 178.662 92.1125 200C92.1125 221.338 98.44 242.197 110.295 259.939C122.15 277.681 138.999 291.509 158.713 299.675C178.427 307.841 200.12 309.977 221.048 305.814C236.721 302.697 251.438 296.151 264.178 286.723C271.281 281.467 281.353 281.353 287.602 287.602L330.108 330.108Z" stroke="#7c3aed" stroke-width="44" mask="url(#path-1-inside-1_35_10)"/>
<circle cx="200" cy="200" r="64" fill="#e11d48"/>
<circle cx="334.5" cy="200.5" r="30.5" fill="#e11d48"/>
</svg>
